<?xml version="1.0" standalone="no"?>
<!DOCTYPE svg PUBLIC "-//W3C//DTD SVG 20010904//EN"
 "http://www.w3.org/TR/2001/REC-SVG-20010904/DTD/svg10.dtd">
<svg version="1.0" xmlns="http://www.w3.org/2000/svg"
 width="600.000000pt" height="600.000000pt" viewBox="0 0 600.000000 600.000000"
 preserveAspectRatio="xMidYMid meet">

<g transform="translate(0.000000,600.000000) scale(0.100000,-0.100000)"
fill="#000000" stroke="none">
<path d="M0 3000 l0 -3000 3000 0 3000 0 0 3000 0 3000 -3000 0 -3000 0 0
-3000z m3136 2352 c59 -30 97 -65 134 -122 17 -27 40 -52 50 -55 10 -3 42 2
70 11 67 22 154 14 224 -20 29 -14 62 -26 74 -26 11 0 44 20 73 45 70 60 129
79 233 73 130 -7 214 -62 271 -175 31 -63 48 -73 102 -66 54 7 126 -25 153
-69 17 -26 20 -45 17 -93 -2 -33 -10 -74 -17 -91 -12 -28 -10 -36 21 -100 31
-63 34 -77 34 -164 0 -134 -20 -187 -103 -270 -40 -40 -64 -72 -63 -85 5 -110
3 -138 -16 -163 -55 -75 -156 -96 -223 -47 -45 33 -68 32 -131 -7 -70 -44
-170 -51 -247 -18 -64 27 -125 93 -159 168 -47 104 -59 109 -153 61 -110 -56
-239 -49 -325 16 -97 74 -115 70 -171 -36 -72 -136 -192 -240 -318 -274 -47
-13 -89 -16 -153 -13 -105 5 -184 37 -277 112 -64 53 -78 55 -166 21 -123 -46
-261 27 -340 182 -29 55 -43 71 -75 86 -128 60 -194 223 -150 372 20 71 53
119 111 163 24 18 46 42 48 55 23 117 33 151 64 210 42 82 114 149 192 178 44
17 71 20 135 17 97 -5 141 -26 226 -104 37 -34 66 -53 75 -50 8 3 39 13 69 22
62 17 75 34 75 94 0 53 32 111 73 136 50 29 132 25 182 -9 22 -15 44 -27 50
-27 6 0 30 14 52 30 23 17 59 37 80 45 51 20 147 13 199 -13z m106 -1358 c73
-19 150 -14 232 15 l54 19 13 -31 c21 -51 137 -160 204 -193 53 -26 71 -29
155 -29 83 0 103 3 156 28 58 27 63 28 91 13 25 -12 37 -34 75 -133 97 -248
165 -485 217 -748 56 -284 66 -393 66 -710 0 -276 -2 -296 -27 -411 -102 -467
-459 -866 -934 -1045 -558 -210 -1146 -102 -1551 284 -263 252 -442 572 -497
892 -73 419 -20 964 144 1480 60 188 164 455 179 455 3 0 30 -9 59 -20 59 -23
158 -26 225 -9 42 12 44 11 109 -33 237 -163 517 -138 731 63 40 37 88 91 107
122 l35 54 48 -24 c26 -13 75 -31 109 -39z m-1530 -80 c-104 -208 -236 -622
-292 -917 -17 -89 -33 -172 -35 -183 -10 -45 -295 -147 -501 -179 -127 -20
-420 -16 -514 7 l-55 14 3 39 c1 22 12 76 23 119 71 279 238 530 498 747 266
224 501 356 751 424 l85 23 28 -28 29 -27 -20 -39z m2958 29 c142 -52 370
-168 505 -257 150 -99 324 -269 411 -401 64 -97 149 -278 141 -300 -8 -19
-154 -73 -282 -103 -102 -25 -127 -27 -335 -26 -237 0 -319 10 -493 64 -62 19
-65 22 -71 58 -30 167 -148 566 -216 732 -16 40 -30 76 -30 81 0 4 13 10 29
14 32 7 104 55 134 89 9 12 26 38 37 59 24 44 22 44 170 -10z"/>
<path d="M2367 3260 c-84 -21 -164 -84 -202 -160 -26 -51 -31 -156 -11 -218
22 -66 84 -134 151 -168 48 -23 64 -26 132 -22 91 4 140 25 196 81 108 108
111 282 8 400 -61 69 -185 109 -274 87z m216 -180 c36 -29 52 -81 37 -125 -16
-49 -53 -75 -107 -75 -38 0 -50 5 -79 34 -28 28 -34 42 -34 76 0 34 6 48 34
76 29 29 41 34 79 34 29 0 53 -7 70 -20z"/>
<path d="M3525 3253 c-92 -33 -156 -97 -185 -187 -20 -62 -9 -175 23 -229 96
-163 306 -197 446 -71 152 136 118 380 -64 469 -71 35 -153 42 -220 18z m220
-157 c84 -36 93 -161 13 -202 -49 -25 -96 -18 -134 20 -28 28 -34 42 -34 75 0
50 23 89 65 107 39 17 48 17 90 0z"/>
<path d="M3491 1610 c-41 -21 -90 -54 -109 -72 -41 -39 -115 -149 -142 -212
-43 -101 -49 -246 -10 -246 14 0 24 18 41 68 27 82 60 150 109 222 53 78 66
87 74 55 4 -17 19 -31 41 -41 31 -13 39 -12 72 1 21 9 46 23 56 33 56 50 74
157 36 206 -30 38 -77 35 -168 -14z"/>
<path d="M2521 1587 c-41 -66 -23 -146 48 -209 32 -30 49 -38 79 -38 43 0 64
13 84 53 l14 29 42 -56 c45 -59 101 -166 122 -228 8 -27 17 -38 31 -38 17 0
19 8 19 65 0 40 -8 85 -21 119 -27 72 -106 192 -154 235 -44 38 -149 88 -205
97 -34 6 -39 3 -59 -29z"/>
</g>
</svg>
